<svg width="540" height="108" viewBox="0 0 540 108" fill="none" xmlns="http://www.w3.org/2000/svg">
<path d="M108.542 55.769C108.855 55.913 108.55 56.271 108.758 56.502C109.965 56.164 111.199 55.816 112.433 55.47C112.434 55.449 112.435 55.429 112.435 55.408C111.207 55.051 109.98 54.692 108.685 54.315C108.685 54.636 108.682 54.923 108.686 55.211C108.687 55.367 108.635 55.437 108.454 55.365C108.454 54.619 108.452 53.869 108.46 53.121C108.461 53.066 108.545 53.014 108.59 52.961C108.625 53.014 108.688 53.065 108.69 53.119C108.702 53.357 108.701 53.597 108.694 53.834C108.69 53.983 108.74 54.067 108.894 54.111C110.27 54.49 111.644 54.88 113.022 55.254C113.142 55.287 113.291 55.24 113.42 55.205C115.091 54.755 116.762 54.304 118.431 53.846C118.914 53.713 118.824 53.789 118.837 53.323C118.838 53.278 118.822 53.222 118.841 53.187C118.879 53.122 118.937 53.066 118.986 53.007L119.057 53.057C119.057 53.807 119.059 54.557 119.052 55.307C119.051 55.356 118.979 55.405 118.94 55.453C118.903 55.404 118.837 55.358 118.833 55.307C118.819 55.136 118.828 54.964 118.828 54.744C117.538 55.093 116.289 55.431 115.04 55.768C115.039 55.789 115.038 55.81 115.037 55.831C116.278 56.185 117.519 56.54 118.808 56.909C118.808 56.598 118.798 56.327 118.814 56.056C118.819 55.982 118.9 55.912 118.946 55.84C118.982 55.912 119.048 55.983 119.049 56.054C119.05 56.723 119.043 57.392 119.027 58.062C119.025 58.137 118.948 58.211 118.906 58.286C118.869 58.206 118.829 58.129 118.799 58.047C118.787 58.015 118.797 57.974 118.797 57.938C118.803 57.216 118.802 57.218 118.118 57.023C116.947 56.689 115.777 56.349 114.603 56.024C114.454 55.983 114.275 55.983 114.126 56.022C113.089 56.294 112.058 56.585 111.023 56.863C110.363 57.039 109.701 57.209 109.035 57.365C108.762 57.428 108.602 57.541 108.667 57.848C108.676 57.891 108.681 57.945 108.665 57.984C108.634 58.062 108.587 58.134 108.547 58.209C108.509 58.133 108.439 58.057 108.438 57.98C108.429 57.258 108.433 56.536 108.433 55.812L108.542 55.769Z" fill="#DABF9B"/>
<path d="M140.958 20.383C140.904 20.449 140.862 20.535 140.794 20.577C140.214 20.929 139.627 21.27 139.047 21.62C138.904 21.706 138.813 21.709 138.78 21.511C138.964 21.396 139.148 21.281 139.369 21.142C138.416 20.228 137.485 19.334 136.553 18.441C136.534 18.453 136.515 18.465 136.496 18.478C136.83 19.719 137.164 20.961 137.509 22.245C137.827 22.062 138.116 21.895 138.421 21.719C138.461 21.782 138.499 21.84 138.545 21.911C137.877 22.308 137.224 22.698 136.566 23.077C136.516 23.106 136.42 23.056 136.345 23.042C136.344 23.011 136.343 22.981 136.343 22.95C136.591 22.801 136.846 22.662 137.083 22.497C137.148 22.451 137.209 22.317 137.19 22.245C136.826 20.854 136.452 19.467 136.071 18.081C136.041 17.975 135.956 17.874 135.874 17.795C135.13 17.076 134.381 16.362 133.635 15.646C133.074 15.109 132.508 14.575 131.958 14.027C131.816 13.886 131.709 13.875 131.56 13.989C131.481 14.05 131.394 14.112 131.3 14.14C131.229 14.16 131.142 14.127 131.062 14.117C131.06 14.082 131.057 14.047 131.054 14.012C131.552 13.729 132.052 13.447 132.549 13.161C132.698 13.075 132.835 12.965 132.988 12.885C133.047 12.855 133.135 12.879 133.209 12.879C133.173 12.948 133.154 13.044 133.097 13.082C132.962 13.171 132.809 13.232 132.617 13.328C133.585 14.253 134.524 15.15 135.462 16.047C135.485 16.036 135.508 16.025 135.531 16.014C135.195 14.773 134.858 13.532 134.519 12.278C134.151 12.383 133.899 12.739 133.514 12.684L133.47 12.579C134.166 12.18 134.862 11.782 135.557 11.383L135.625 11.455C135.595 11.507 135.578 11.577 135.534 11.608C135.355 11.734 135.175 11.863 134.981 11.962C134.806 12.052 134.783 12.157 134.834 12.337C135.032 13.031 135.216 13.729 135.404 14.425C135.572 15.05 135.732 15.678 135.912 16.3C135.952 16.441 136.032 16.59 136.136 16.691C137.434 17.947 138.742 19.192 140.039 20.449C140.195 20.6 140.301 20.61 140.483 20.502C140.621 20.421 140.753 20.182 140.967 20.392L140.958 20.383Z" fill="#DABF9B"/>
<path d="M139.196 104.172C139.106 104.172 138.999 104.203 138.93 104.166C138.325 103.844 137.726 103.51 137.13 103.172C137.095 103.151 137.095 103.07 137.078 103.018C137.139 103.006 137.212 102.969 137.258 102.99C137.414 103.06 137.561 103.152 137.759 103.262C138.484 100.641 139.201 98.057 139.917 95.471C139.901 95.461 139.884 95.45 139.868 95.44C138.149 97.465 136.43 99.491 134.711 101.516C135.003 101.717 135.271 101.9 135.534 102.088C135.542 102.094 135.503 102.166 135.468 102.246C134.822 101.885 134.194 101.529 133.562 101.182C133.415 101.101 133.402 101.025 133.54 100.902C133.75 101.019 133.973 101.126 134.178 101.26C134.356 101.377 134.465 101.364 134.61 101.193C136.393 99.102 138.183 97.016 139.976 94.932C140.383 94.461 140.81 94.006 141.234 93.549C141.285 93.493 141.381 93.482 141.456 93.448C141.461 93.522 141.486 93.602 141.467 93.67C140.843 95.883 140.217 98.096 139.588 100.307C139.281 101.389 138.971 102.469 138.656 103.547C138.616 103.685 138.632 103.766 138.767 103.832C138.912 103.904 139.045 104 139.184 104.086C139.188 104.114 139.191 104.144 139.196 104.172Z" fill="#DABF9B"/>
<path d="M183.848 102.078C184.149 101.906 184.431 101.746 184.729 101.575C184.767 101.633 184.803 101.689 184.832 101.734C184.15 102.139 183.484 102.534 182.819 102.929C182.791 102.909 182.764 102.891 182.736 102.872C182.782 102.796 182.81 102.696 182.875 102.651C183.1 102.497 183.337 102.36 183.577 102.212C183.464 101.874 183.36 101.562 183.256 101.249C182.286 98.321 181.315 95.394 180.349 92.464C180.314 92.358 180.338 92.233 180.334 92.115C180.434 92.18 180.551 92.229 180.631 92.313C182.933 94.743 185.231 97.176 187.529 99.61C187.591 99.676 187.64 99.756 187.694 99.829C187.93 99.699 188.121 99.595 188.311 99.49C188.452 99.597 188.444 99.677 188.298 99.759C187.669 100.118 187.044 100.483 186.4 100.855C186.357 100.791 186.32 100.735 186.274 100.666C186.471 100.549 186.65 100.44 186.876 100.305C185.008 98.352 183.158 96.418 181.308 94.485C181.287 94.497 181.267 94.506 181.246 94.517C182.107 97.024 182.971 99.531 183.848 102.078Z" fill="#DABF9B"/>
<path d="M131.269 99.662C131.186 99.627 131.097 99.6 131.022 99.553C130.414 99.162 129.808 98.766 129.203 98.373C129.297 98.162 129.298 98.16 129.507 98.293C129.63 98.371 129.751 98.453 129.899 98.549C131.737 95.717 133.566 92.899 135.4 90.072C135.209 89.912 135.032 89.765 134.862 89.611C134.853 89.603 134.911 89.523 134.948 89.461C135.594 89.879 136.232 90.289 136.866 90.709C136.908 90.736 136.912 90.821 136.933 90.881C136.872 90.888 136.796 90.922 136.751 90.898C136.59 90.812 136.44 90.708 136.259 90.592C134.422 93.422 132.594 96.242 130.749 99.086C130.903 99.192 131.036 99.303 131.185 99.381C131.33 99.459 131.321 99.552 131.262 99.67L131.269 99.662Z" fill="#DABF9B"/>
<path d="M200.842 53.175V53.867C204.229 53.91 207.595 53.953 210.984 53.994C210.984 53.799 210.973 53.627 210.989 53.459C210.996 53.39 211.065 53.326 211.105 53.261C211.141 53.323 211.207 53.383 211.207 53.444C211.21 54.14 211.205 54.837 211.191 55.532C211.19 55.589 211.113 55.643 211.071 55.698C211.037 55.636 210.979 55.577 210.974 55.512C210.96 55.349 210.969 55.184 210.969 54.975C207.59 54.944 204.231 54.913 200.82 54.882C200.82 55.087 200.828 55.267 200.815 55.445C200.811 55.498 200.745 55.546 200.708 55.595C200.667 55.547 200.591 55.5 200.592 55.452C200.595 54.727 200.605 54.004 200.625 53.28C200.627 53.225 200.721 53.176 200.772 53.124C200.795 53.141 200.819 53.158 200.842 53.175Z" fill="#DABF9B"/>
<path d="M131.262 99.67C131.362 99.559 131.461 99.544 131.587 99.645C131.706 99.742 131.843 99.813 132.008 99.919C133.848 97.078 135.673 94.259 137.502 91.436C137.311 91.281 137.13 91.135 136.956 90.983C136.951 90.977 137.01 90.899 137.052 90.835C137.699 91.253 138.338 91.662 138.97 92.082C139.018 92.112 139.018 92.216 139.041 92.286C139.013 92.302 138.985 92.317 138.957 92.333C138.766 92.215 138.575 92.097 138.363 91.966C136.516 94.804 134.681 97.625 132.835 100.462C133.035 100.593 133.223 100.716 133.499 100.896C133.356 100.939 133.255 101.005 133.212 100.978C132.578 100.579 131.952 100.166 131.326 99.754C131.299 99.735 131.288 99.692 131.27 99.663L131.262 99.67Z" fill="#DABF9B"/>
<path d="M119.008 60.979C118.706 61.039 118.781 60.841 118.773 60.714C118.764 60.581 118.771 60.445 118.771 60.276C118.334 60.276 117.933 60.278 117.531 60.276C115.459 60.265 113.387 60.254 111.314 60.241C110.473 60.236 109.631 60.224 108.79 60.231C108.727 60.232 108.632 60.345 108.61 60.423C108.578 60.533 108.614 60.661 108.596 60.777C108.588 60.832 108.523 60.877 108.483 60.925C108.452 60.866 108.394 60.81 108.392 60.749C108.384 60.477 108.392 60.202 108.394 59.93C108.397 59.529 108.394 59.126 108.408 58.726C108.41 58.655 108.479 58.587 108.518 58.518C108.558 58.585 108.624 58.65 108.632 58.72C108.65 58.874 108.638 59.03 108.638 59.238C108.769 59.238 108.882 59.238 108.996 59.238C112.177 59.254 115.357 59.265 118.537 59.287C118.735 59.287 118.804 59.231 118.784 59.041C118.774 58.94 118.768 58.836 118.788 58.738C118.801 58.677 118.866 58.627 118.907 58.572C118.941 58.627 119.003 58.677 119.004 58.732C119.01 59.474 119.008 60.215 119.008 60.979Z" fill="#DABF9B"/>
<path d="M210.939 59.074C210.939 58.867 210.928 58.701 210.945 58.539C210.951 58.477 211.019 58.422 211.06 58.363C211.1 58.42 211.176 58.476 211.175 58.532C211.169 59.243 211.155 59.953 211.132 60.663C211.13 60.717 211.048 60.766 211.003 60.817C210.983 60.804 210.963 60.791 210.943 60.778C210.933 60.554 210.923 60.332 210.911 60.074C207.535 60.041 204.177 60.008 200.784 59.974C200.784 60.169 200.796 60.333 200.778 60.494C200.77 60.561 200.696 60.621 200.652 60.684C200.616 60.622 200.548 60.563 200.548 60.501C200.54 59.769 200.543 59.035 200.543 58.302C200.574 58.282 200.605 58.263 200.636 58.243C200.69 58.296 200.744 58.348 200.797 58.401C200.802 58.406 200.797 58.419 200.798 58.428C200.838 58.969 200.838 58.971 201.376 58.977C204.457 59.008 207.539 59.041 210.621 59.073C210.71 59.075 210.8 59.074 210.939 59.074Z" fill="#DABF9B"/>
<path d="M140.967 20.392C141.014 20.306 141.043 20.198 141.113 20.14C141.238 20.037 141.388 19.965 141.544 19.871C139.819 16.956 138.106 14.062 136.393 11.167C136.204 11.259 136.042 11.342 135.876 11.415C135.836 11.432 135.78 11.414 135.732 11.412C135.749 11.359 135.757 11.302 135.784 11.256C135.806 11.219 135.847 11.188 135.886 11.166C136.495 10.818 137.106 10.473 137.752 10.106C137.757 10.185 137.772 10.241 137.76 10.29C137.755 10.315 137.702 10.329 137.672 10.35C137.225 10.657 137.22 10.66 137.501 11.13C138.225 12.339 138.956 13.543 139.677 14.753C140.547 16.214 141.409 17.679 142.275 19.142C142.316 19.211 142.365 19.275 142.409 19.338C143.047 19.052 143.047 19.052 143.116 19.215C142.466 19.602 141.815 19.993 141.159 20.375C141.108 20.405 141.026 20.382 140.958 20.383L140.967 20.392Z" fill="#DABF9B"/>
<path d="M184.81 12.127C184.595 11.977 184.408 11.847 184.221 11.717C184.246 11.679 184.271 11.641 184.297 11.603C184.987 11.992 185.678 12.382 186.375 12.775C186.285 13.021 186.154 12.868 186.04 12.811C185.919 12.749 185.803 12.679 185.671 12.604C183.976 15.543 182.292 18.464 180.596 21.403C180.773 21.506 180.928 21.584 181.069 21.683C181.117 21.717 181.127 21.805 181.155 21.868C181.086 21.871 181.001 21.902 180.949 21.873C180.342 21.531 179.742 21.177 179.136 20.834C178.984 20.749 178.991 20.673 179.12 20.561C179.309 20.665 179.5 20.77 179.724 20.894C181.418 17.976 183.108 15.061 184.81 12.127Z" fill="#DABF9B"/>
<path d="M200.794 57.427C200.794 57.63 200.804 57.793 200.789 57.955C200.783 58.019 200.723 58.078 200.688 58.139C200.648 58.083 200.574 58.028 200.574 57.971C200.571 57.276 200.576 56.578 200.589 55.882C200.59 55.825 200.665 55.77 200.706 55.713C200.741 55.774 200.803 55.833 200.808 55.897C200.846 56.432 200.843 56.432 201.374 56.436C203.262 56.454 205.15 56.473 207.038 56.49C208.082 56.499 209.126 56.5 210.17 56.511C210.352 56.513 210.534 56.538 210.715 56.558C210.919 56.579 211 56.488 210.988 56.287C210.979 56.141 210.986 55.996 210.986 55.837C211.152 55.76 211.204 55.832 211.196 56.003C211.175 56.506 211.154 57.009 211.142 57.513C211.137 57.703 211.167 57.896 211.159 58.085C211.157 58.14 211.078 58.192 211.033 58.246C211 58.184 210.931 58.117 210.939 58.061C211.025 57.471 211.048 57.49 210.373 57.493C209.504 57.496 208.636 57.477 207.767 57.473C206.494 57.466 205.22 57.465 203.946 57.456C203.011 57.45 202.076 57.437 201.141 57.427C201.042 57.426 200.942 57.427 200.794 57.427Z" fill="#DABF9B"/>
<path d="M162.84 11.334L157.835 11.34L157.839 14.943C157.839 15.283 157.855 15.499 157.887 15.592C157.917 15.685 157.975 15.763 158.06 15.827C158.145 15.89 158.292 15.922 158.502 15.921V16.017L156.145 16.019V15.924C156.574 15.953 156.789 15.739 156.788 15.281L156.779 7.744C156.779 7.316 156.745 7.044 156.676 6.93C156.608 6.816 156.428 6.752 156.135 6.74V6.644L158.492 6.642V6.737C158.232 6.754 158.057 6.806 157.966 6.891C157.876 6.976 157.831 7.15 157.831 7.413L157.835 11.079L162.84 11.073L162.836 7.719C162.836 7.337 162.803 7.077 162.739 6.939C162.675 6.802 162.497 6.733 162.204 6.733V6.638L164.53 6.635V6.73C164.346 6.731 164.209 6.753 164.12 6.798C164.03 6.842 163.969 6.911 163.936 7.005C163.903 7.098 163.887 7.335 163.888 7.717L163.896 14.91C163.896 15.279 163.913 15.509 163.946 15.6C163.979 15.692 164.036 15.767 164.118 15.826C164.199 15.885 164.34 15.915 164.54 15.915L164.541 16.01L162.214 16.013V15.917C162.466 15.917 162.634 15.864 162.718 15.758C162.803 15.652 162.845 15.366 162.844 14.9L162.84 11.334Z" fill="#DABF9B"/>
<path d="M203.037 31.188C203.684 32.291 203.868 33.395 203.589 34.5C203.31 35.606 202.655 36.461 201.622 37.067C200.294 37.846 198.938 38.096 197.555 37.817C196.171 37.538 195.086 36.728 194.3 35.387C193.661 34.298 193.504 33.192 193.83 32.069C194.155 30.946 194.83 30.084 195.855 29.483C196.547 29.077 197.355 28.828 198.279 28.736C199.204 28.643 200.093 28.798 200.946 29.201C201.8 29.604 202.497 30.266 203.037 31.188ZM195.113 35.792C195.43 36.333 195.892 36.779 196.499 37.131C197.106 37.482 197.76 37.656 198.461 37.651C199.161 37.647 199.788 37.482 200.341 37.158C201.124 36.699 201.717 36.078 202.118 35.295C202.52 34.512 202.711 33.689 202.693 32.828C202.675 31.966 202.504 31.259 202.181 30.708C201.723 29.929 201.007 29.399 200.031 29.118C199.054 28.837 198.118 28.959 197.221 29.485C196.075 30.157 195.296 31.135 194.884 32.419C194.471 33.704 194.547 34.828 195.113 35.792Z" fill="#DABF9B"/>
<path d="M193.625 79.199L194.418 77.666L195.701 78.33C195.212 77.088 195.246 75.928 195.805 74.849C196.22 74.047 196.781 73.531 197.488 73.301C198.194 73.071 198.957 73.168 199.774 73.59L204.759 76.17C205.061 76.326 205.271 76.391 205.387 76.363C205.504 76.336 205.629 76.193 205.762 75.937L205.847 75.981L204.735 78.128L204.65 78.085C204.768 77.857 204.814 77.679 204.788 77.546C204.764 77.415 204.614 77.278 204.338 77.136L199.766 74.77C198.808 74.274 198.013 74.138 197.379 74.362C196.744 74.586 196.284 74.975 195.996 75.531C195.543 76.406 195.547 77.391 196.007 78.487L201.642 81.404C202.135 81.66 202.45 81.769 202.586 81.733C202.722 81.697 202.837 81.587 202.929 81.41L202.969 81.332L203.054 81.377L201.951 83.509L201.866 83.465C201.987 83.193 202.028 83.004 201.987 82.897C201.947 82.792 201.822 82.683 201.611 82.573L194.833 79.065C194.565 78.927 194.384 78.849 194.288 78.833C194.192 78.814 194.096 78.831 194 78.882C193.905 78.933 193.808 79.053 193.71 79.243L193.625 79.199Z" fill="#DABF9B"/>
<path d="M163.449 106.904L163.448 107L160.863 106.971C160.207 106.963 159.733 106.944 159.44 106.91C159.148 106.877 158.849 106.774 158.544 106.603C158.238 106.432 158.009 106.203 157.855 105.914C157.702 105.627 157.628 105.273 157.632 104.857C157.638 104.382 157.782 103.93 158.065 103.502C158.349 103.074 158.746 102.715 159.256 102.424L158.624 101.4C158.487 101.143 158.121 100.583 157.527 99.713C156.932 98.847 156.471 98.317 156.143 98.125C155.815 97.932 155.497 97.834 155.187 97.83C154.882 97.826 154.53 97.943 154.132 98.181L154.096 98.053C154.596 97.643 155.241 97.443 156.031 97.451C156.559 97.457 157.01 97.623 157.386 97.948C157.761 98.273 158.411 99.162 159.335 100.615C159.343 100.623 159.347 100.633 159.348 100.64L160.247 102.1L161.059 102.083L161.797 102.093L161.837 98.507C161.84 98.22 161.806 98.013 161.734 97.887C161.662 97.762 161.485 97.697 161.203 97.694L161.204 97.599L163.555 97.624L163.554 97.72C163.261 97.73 163.077 97.79 163.004 97.905C162.931 98.019 162.892 98.252 162.888 98.604L162.803 106.05C162.801 106.292 162.829 106.493 162.89 106.653C162.95 106.813 163.136 106.896 163.449 106.904ZM161.744 106.732L161.794 102.336L160.839 102.324C160.088 102.315 159.527 102.491 159.16 102.852C158.792 103.212 158.605 103.69 158.598 104.284C158.591 104.861 158.764 105.41 159.116 105.93C159.467 106.449 160.093 106.713 160.994 106.725L161.744 106.732Z" fill="#DABF9B"/>
<path d="M124.573 77.012L124.486 77.051C124.369 76.792 124.243 76.647 124.108 76.614C123.973 76.582 123.783 76.621 123.54 76.73L116.544 79.875C116.296 79.987 116.131 80.098 116.048 80.207C115.965 80.317 115.987 80.523 116.114 80.828L116.027 80.867L115.025 78.638L115.112 78.599C115.205 78.806 115.297 78.939 115.389 78.996C115.48 79.056 115.569 79.081 115.654 79.074C115.739 79.067 115.912 79.005 116.171 78.889L122.174 76.191C122.688 75.959 122.997 75.676 123.1 75.34C123.202 75.004 123.123 74.545 122.862 73.963L122.405 72.949C122.186 72.461 121.901 72.158 121.551 72.043C121.202 71.928 120.678 72.01 119.981 72.291L119.943 72.207L121.998 71.283L124.573 77.012Z" fill="#DABF9B"/>
<path d="M118.054 30.122L118.732 28.934L118.814 28.982C118.74 29.138 118.706 29.283 118.713 29.415C118.721 29.548 118.787 29.733 118.91 29.97L120.826 33.626L124.553 35.752C124.855 35.924 125.074 35.999 125.211 35.977C125.348 35.954 125.489 35.817 125.633 35.564L125.716 35.611L124.508 37.728L124.425 37.681C124.682 37.291 124.634 36.995 124.28 36.793L124.042 36.672L120.6 34.708L116.19 34.764C115.724 34.768 115.424 34.899 115.292 35.156L115.209 35.109L116.276 33.239L116.359 33.286C116.26 33.46 116.278 33.586 116.414 33.664C116.484 33.704 116.618 33.721 116.816 33.715L120.437 33.664L118.701 30.363C118.689 30.314 118.656 30.247 118.599 30.162C118.542 30.078 118.499 30.027 118.47 30.01C118.348 29.941 118.243 29.983 118.156 30.137L118.137 30.169L118.054 30.122Z" fill="#DABF9B"/>
<path d="M78.37 55.676H29.602V89.809C29.602 93.02 29.753 95.067 30.055 95.95C30.356 96.832 30.919 97.576 31.742 98.177C32.565 98.781 34.003 99.08 36.053 99.08V99.983H13.084V99.08C17.264 99.36 19.354 97.333 19.354 92.994V21.61C19.354 17.555 19.022 14.984 18.359 13.899C17.696 12.816 15.938 12.213 13.084 12.093V11.188H36.052V12.093C33.52 12.253 31.811 12.736 30.928 13.539C30.043 14.343 29.601 15.991 29.601 18.482V53.204H78.37V21.436C78.37 17.819 78.059 15.358 77.436 14.052C76.812 12.746 75.075 12.093 72.221 12.093V11.188H94.887V12.093C93.095 12.093 91.762 12.304 90.886 12.726C90.01 13.148 89.414 13.799 89.095 14.683C88.777 15.565 88.618 17.816 88.618 21.43V89.56C88.618 93.054 88.777 95.234 89.095 96.095C89.414 96.959 89.971 97.673 90.767 98.236C91.563 98.797 92.936 99.079 94.887 99.079V99.982H72.221V99.079C74.672 99.079 76.31 98.578 77.134 97.573C77.957 96.57 78.37 93.861 78.37 89.447V55.676Z" fill="#DABF9B"/>
<path d="M304.141 99.982H287.323V86.299C278.771 95.824 268.574 100.586 256.731 100.586C247.938 100.586 240.962 98.113 235.804 93.171C230.645 88.229 228.066 81.397 228.066 72.676V19.507C228.066 16.292 227.683 14.253 226.921 13.389C226.157 12.525 224.368 12.093 221.556 12.093V11.189H245.126V12.093C242.633 12.093 240.876 12.485 239.851 13.268C238.826 14.052 238.314 15.911 238.314 18.844V67.612C238.314 77.821 240.702 85.104 245.479 89.465C250.256 93.826 255.693 96.005 261.794 96.005C271.387 96.005 279.897 91.685 287.323 83.045V22.945C287.323 17.68 286.86 14.555 285.936 13.571C285.01 12.586 283.564 12.094 281.595 12.094H280.751V11.19H304.141V12.094C301.246 12.255 299.428 12.737 298.686 13.539C297.941 14.343 297.57 15.868 297.57 18.119V90.404C297.57 93.258 297.711 95.126 297.992 96.008C298.273 96.892 298.845 97.626 299.71 98.208C300.574 98.789 302.051 99.08 304.142 99.08V99.982H304.141Z" fill="#DABF9B"/>
<path d="M312.144 12.333V11.43H337.342C343.732 11.43 348.353 11.571 351.206 11.854C354.06 12.135 356.983 13.069 359.977 14.658C362.97 16.248 365.23 18.398 366.758 21.112C368.284 23.828 369.049 27.157 369.049 31.097C369.049 35.601 367.692 39.895 364.979 43.977C362.266 48.059 358.438 51.509 353.495 54.325L359.765 63.96C361.13 66.37 364.757 71.649 370.647 79.802C376.534 87.952 381.085 92.921 384.301 94.71C387.516 96.497 390.63 97.392 393.645 97.392C396.619 97.392 400.035 96.247 403.893 93.956L404.253 95.161C399.435 99.099 393.171 101.068 385.463 101.068C380.324 101.068 375.908 99.547 372.214 96.505C368.521 93.464 362.091 85.114 352.926 71.46C352.846 71.382 352.806 71.302 352.806 71.22L343.882 57.486L335.97 57.727H328.782V91.677C328.782 94.405 329.14 96.362 329.857 97.546C330.573 98.73 332.305 99.32 335.051 99.32V100.224H312.144V99.32C314.998 99.2 316.776 98.598 317.479 97.513C318.182 96.43 318.534 94.221 318.534 90.886V20.347C318.534 18.058 318.233 16.16 317.63 14.653C317.027 13.147 315.198 12.374 312.144 12.333ZM328.782 13.78V55.434H338.083C345.411 55.434 350.848 53.706 354.393 50.249C357.936 46.793 359.706 42.252 359.706 36.626C359.706 31.16 357.965 25.986 354.482 21.103C350.998 16.22 344.868 13.779 336.089 13.779L328.782 13.78Z" fill="#DABF9B"/>
<path d="M406.492 100.404V99.501C409.265 99.501 411.064 98.978 411.888 97.935C412.71 96.89 413.124 95.104 413.124 92.573V19.924C413.124 17.354 412.801 15.497 412.159 14.352C411.515 13.208 409.587 12.595 406.371 12.515V11.611H430.183V12.515C427.972 12.515 426.423 12.796 425.541 13.359C424.657 13.921 424.072 14.585 423.793 15.348C423.511 16.112 423.371 17.84 423.371 20.532V82.864C423.371 88.208 424.653 91.976 427.222 94.167C429.791 96.356 434.185 97.452 440.408 97.452H451.242C456.459 97.452 460.281 96.165 462.71 93.594C465.138 91.022 466.493 86.18 466.774 79.066H467.677V100.406H406.492V100.404Z" fill="#DABF9B"/>
<path d="M519.678 11.852H533V12.756C531.312 12.877 529.926 13.279 528.841 13.962C527.756 14.645 526.51 16.052 525.103 18.182L503.402 51.1V91.745C503.402 95.034 503.828 97.187 504.68 98.208C505.531 99.231 507.376 99.743 510.214 99.743V100.646H486.463V99.743C491.004 100.023 493.275 98.237 493.275 94.38L493.154 91.851V54.317L471.393 18.301C469.102 14.483 466.548 12.635 463.738 12.755V11.851H484.716V12.755C482.76 12.755 481.784 13.497 481.784 14.981C481.784 15.742 482.286 16.926 483.291 18.529L501.203 48.08L520.762 18.299C521.124 17.98 521.526 17.387 521.968 16.523C522.41 15.659 522.631 15.066 522.631 14.744C522.631 13.418 521.767 12.755 520.041 12.755H519.679V11.852H519.678Z" fill="#DABF9B"/>
</svg>
