<?xml version="1.0" encoding="utf-8"?>
<!-- Generator: Adobe Illustrator 16.0.0, SVG Export Plug-In . SVG Version: 6.00 Build 0)  -->
<!DOCTYPE svg PUBLIC "-//W3C//DTD SVG 1.0//EN" "http://www.w3.org/TR/2001/REC-SVG-20010904/DTD/svg10.dtd">
<svg version="1.0" id="Layer_1" xmlns="http://www.w3.org/2000/svg" xmlns:xlink="http://www.w3.org/1999/xlink" x="0px" y="0px"
	 width="540px" height="108px" viewBox="0 0 540 108" enable-background="new 0 0 540 108" xml:space="preserve">
<g>
	<path d="M108.542,55.769c0.313,0.144,0.008,0.502,0.216,0.733c1.207-0.338,2.441-0.686,3.675-1.032
		c0.001-0.021,0.002-0.041,0.002-0.062c-1.228-0.357-2.455-0.716-3.75-1.093c0,0.321-0.003,0.608,0.001,0.896
		c0.001,0.156-0.051,0.226-0.232,0.154c0-0.746-0.002-1.496,0.006-2.244c0.001-0.055,0.085-0.107,0.13-0.16
		c0.035,0.053,0.098,0.104,0.1,0.158c0.012,0.238,0.011,0.478,0.004,0.715c-0.004,0.149,0.046,0.233,0.2,0.277
		c1.376,0.379,2.75,0.769,4.128,1.143c0.12,0.033,0.269-0.014,0.398-0.049c1.671-0.45,3.342-0.901,5.011-1.359
		c0.483-0.133,0.393-0.057,0.406-0.523c0.001-0.045-0.015-0.101,0.004-0.136c0.038-0.065,0.096-0.121,0.145-0.18l0.071,0.05
		c0,0.75,0.002,1.5-0.005,2.25c-0.001,0.049-0.073,0.098-0.112,0.146c-0.037-0.049-0.103-0.095-0.107-0.146
		c-0.014-0.171-0.005-0.343-0.005-0.563c-1.29,0.349-2.539,0.687-3.788,1.024c-0.001,0.021-0.002,0.042-0.003,0.063
		c1.241,0.354,2.482,0.709,3.771,1.078c0-0.311-0.01-0.582,0.006-0.853c0.005-0.074,0.086-0.144,0.132-0.216
		c0.036,0.072,0.102,0.143,0.103,0.214c0.001,0.669-0.006,1.338-0.022,2.008c-0.002,0.075-0.079,0.149-0.121,0.224
		c-0.037-0.08-0.077-0.157-0.107-0.239c-0.012-0.032-0.002-0.073-0.002-0.109c0.006-0.722,0.005-0.72-0.679-0.915
		c-1.171-0.334-2.341-0.674-3.515-0.999c-0.149-0.041-0.328-0.041-0.477-0.002c-1.037,0.272-2.068,0.563-3.103,0.841
		c-0.66,0.176-1.322,0.346-1.988,0.502c-0.273,0.063-0.433,0.176-0.368,0.483c0.009,0.043,0.014,0.097-0.002,0.136
		c-0.031,0.078-0.078,0.15-0.118,0.225c-0.038-0.076-0.108-0.152-0.109-0.229c-0.009-0.722-0.005-1.444-0.005-2.168L108.542,55.769z
		"/>
	<path d="M140.958,20.383c-0.054,0.066-0.096,0.152-0.164,0.194c-0.58,0.352-1.167,0.693-1.747,1.043
		c-0.143,0.086-0.234,0.089-0.267-0.109c0.184-0.115,0.368-0.23,0.589-0.369c-0.953-0.914-1.884-1.808-2.816-2.701
		c-0.019,0.012-0.038,0.024-0.057,0.037c0.334,1.241,0.668,2.483,1.013,3.767c0.318-0.183,0.607-0.35,0.912-0.526
		c0.04,0.063,0.078,0.121,0.124,0.192c-0.668,0.397-1.321,0.787-1.979,1.166c-0.05,0.029-0.146-0.021-0.221-0.035
		c-0.001-0.031-0.002-0.061-0.002-0.092c0.248-0.149,0.503-0.288,0.74-0.453c0.065-0.046,0.126-0.18,0.107-0.252
		c-0.364-1.391-0.738-2.778-1.119-4.164c-0.03-0.106-0.115-0.207-0.197-0.286c-0.744-0.719-1.493-1.433-2.239-2.149
		c-0.561-0.537-1.127-1.071-1.677-1.619c-0.142-0.141-0.249-0.152-0.398-0.038c-0.079,0.061-0.166,0.123-0.26,0.151
		c-0.071,0.02-0.158-0.013-0.238-0.023c-0.002-0.035-0.005-0.07-0.008-0.105c0.498-0.283,0.998-0.565,1.495-0.851
		c0.149-0.086,0.286-0.196,0.439-0.276c0.059-0.03,0.147-0.006,0.221-0.006c-0.036,0.069-0.055,0.165-0.112,0.203
		c-0.135,0.089-0.288,0.15-0.48,0.246c0.968,0.925,1.907,1.822,2.845,2.719c0.023-0.011,0.046-0.022,0.069-0.033
		c-0.336-1.241-0.673-2.482-1.012-3.736c-0.368,0.105-0.62,0.461-1.005,0.406l-0.044-0.105c0.696-0.399,1.392-0.797,2.087-1.196
		l0.068,0.072c-0.03,0.052-0.047,0.122-0.091,0.153c-0.179,0.126-0.359,0.255-0.553,0.354c-0.175,0.09-0.198,0.195-0.147,0.375
		c0.198,0.694,0.382,1.392,0.57,2.088c0.168,0.625,0.328,1.253,0.508,1.875c0.04,0.141,0.12,0.29,0.224,0.391
		c1.298,1.256,2.606,2.501,3.903,3.758c0.156,0.151,0.262,0.161,0.444,0.053c0.138-0.081,0.27-0.32,0.484-0.11L140.958,20.383z"/>
	<path d="M139.196,104.172c-0.09,0-0.197,0.031-0.266-0.006c-0.605-0.322-1.204-0.656-1.8-0.994
		c-0.035-0.021-0.035-0.102-0.052-0.154c0.061-0.012,0.134-0.049,0.18-0.028c0.156,0.07,0.303,0.162,0.501,0.272
		c0.725-2.621,1.442-5.205,2.158-7.791c-0.016-0.01-0.033-0.021-0.049-0.031c-1.719,2.025-3.438,4.051-5.157,6.076
		c0.292,0.201,0.56,0.384,0.823,0.572c0.008,0.006-0.031,0.078-0.066,0.158c-0.646-0.361-1.274-0.717-1.906-1.064
		c-0.147-0.081-0.16-0.157-0.022-0.28c0.21,0.117,0.433,0.224,0.638,0.358c0.178,0.117,0.287,0.104,0.432-0.067
		c1.783-2.091,3.573-4.177,5.366-6.261c0.407-0.471,0.834-0.926,1.258-1.383c0.051-0.056,0.147-0.067,0.222-0.101
		c0.005,0.074,0.03,0.154,0.011,0.222c-0.624,2.213-1.25,4.426-1.879,6.637c-0.307,1.082-0.617,2.162-0.932,3.24
		c-0.04,0.138-0.024,0.219,0.111,0.285c0.145,0.072,0.278,0.168,0.417,0.254C139.188,104.114,139.191,104.144,139.196,104.172"/>
	<path d="M183.848,102.078c0.301-0.172,0.583-0.332,0.881-0.503c0.038,0.058,0.074,0.114,0.103,0.159
		c-0.682,0.405-1.348,0.8-2.013,1.195c-0.028-0.02-0.055-0.038-0.083-0.057c0.046-0.076,0.074-0.176,0.139-0.221
		c0.225-0.154,0.462-0.291,0.702-0.439c-0.113-0.338-0.217-0.65-0.321-0.963c-0.97-2.928-1.941-5.855-2.907-8.785
		c-0.035-0.106-0.011-0.231-0.015-0.349c0.1,0.065,0.217,0.114,0.297,0.198c2.302,2.43,4.6,4.863,6.898,7.297
		c0.062,0.066,0.111,0.146,0.165,0.219c0.236-0.13,0.427-0.234,0.617-0.339c0.141,0.107,0.133,0.187-0.013,0.269
		c-0.629,0.359-1.254,0.724-1.898,1.096c-0.043-0.064-0.08-0.12-0.126-0.189c0.197-0.117,0.376-0.226,0.602-0.361
		c-1.868-1.953-3.718-3.887-5.568-5.82c-0.021,0.012-0.041,0.021-0.062,0.032C182.107,97.024,182.971,99.531,183.848,102.078"/>
	<path d="M131.269,99.662c-0.083-0.035-0.172-0.062-0.247-0.109c-0.608-0.391-1.214-0.787-1.819-1.18
		c0.094-0.211,0.095-0.213,0.304-0.08c0.123,0.078,0.244,0.16,0.392,0.256c1.838-2.832,3.667-5.65,5.501-8.477
		c-0.191-0.16-0.368-0.307-0.538-0.461c-0.009-0.008,0.049-0.088,0.086-0.15c0.646,0.418,1.284,0.828,1.918,1.248
		c0.042,0.027,0.046,0.112,0.067,0.172c-0.061,0.007-0.137,0.041-0.182,0.017c-0.161-0.086-0.311-0.19-0.492-0.306
		c-1.837,2.83-3.665,5.65-5.51,8.494c0.154,0.106,0.287,0.217,0.436,0.295c0.145,0.078,0.136,0.171,0.077,0.289L131.269,99.662z"/>
	<path d="M200.842,53.175v0.692c3.387,0.043,6.753,0.086,10.142,0.127c0-0.195-0.011-0.367,0.005-0.535
		c0.007-0.069,0.076-0.133,0.116-0.198c0.036,0.062,0.102,0.122,0.102,0.183c0.003,0.696-0.002,1.393-0.016,2.088
		c-0.001,0.057-0.078,0.111-0.12,0.166c-0.034-0.062-0.092-0.121-0.097-0.186c-0.014-0.163-0.005-0.328-0.005-0.537
		c-3.379-0.031-6.738-0.062-10.149-0.093c0,0.205,0.008,0.385-0.005,0.563c-0.004,0.053-0.07,0.101-0.107,0.15
		c-0.041-0.048-0.117-0.095-0.116-0.143c0.003-0.725,0.013-1.448,0.033-2.172c0.002-0.055,0.096-0.104,0.147-0.156
		C200.795,53.141,200.819,53.158,200.842,53.175"/>
	<path d="M131.262,99.67c0.1-0.111,0.199-0.126,0.325-0.025c0.119,0.097,0.256,0.168,0.421,0.274c1.84-2.841,3.665-5.66,5.494-8.483
		c-0.191-0.155-0.372-0.301-0.546-0.453c-0.005-0.006,0.054-0.084,0.096-0.148c0.647,0.418,1.286,0.827,1.918,1.247
		c0.048,0.03,0.048,0.134,0.071,0.204c-0.028,0.016-0.056,0.031-0.084,0.047c-0.191-0.118-0.382-0.236-0.594-0.367
		c-1.847,2.838-3.682,5.659-5.528,8.496c0.2,0.131,0.388,0.254,0.664,0.434c-0.143,0.043-0.244,0.109-0.287,0.082
		c-0.634-0.399-1.26-0.812-1.886-1.224c-0.027-0.019-0.038-0.062-0.056-0.091C131.269,99.662,131.262,99.67,131.262,99.67"/>
	<path d="M119.008,60.979c-0.302,0.06-0.227-0.138-0.235-0.265c-0.009-0.133-0.002-0.269-0.002-0.438c-0.437,0-0.838,0.002-1.24,0
		c-2.072-0.011-4.144-0.022-6.217-0.035c-0.841-0.005-1.683-0.017-2.524-0.01c-0.063,0.001-0.158,0.114-0.18,0.192
		c-0.032,0.11,0.004,0.238-0.014,0.354c-0.008,0.055-0.073,0.1-0.113,0.148c-0.031-0.059-0.089-0.115-0.091-0.176
		c-0.008-0.272,0-0.547,0.002-0.819c0.003-0.401,0-0.804,0.014-1.204c0.002-0.071,0.071-0.139,0.11-0.208
		c0.04,0.067,0.106,0.132,0.114,0.202c0.018,0.154,0.006,0.31,0.006,0.518c0.131,0,0.244,0,0.358,0
		c3.181,0.016,6.361,0.027,9.541,0.049c0.198,0,0.267-0.056,0.247-0.246c-0.01-0.101-0.016-0.205,0.004-0.303
		c0.013-0.061,0.078-0.111,0.119-0.166c0.034,0.055,0.096,0.105,0.097,0.16C119.01,59.474,119.008,60.215,119.008,60.979"/>
	<path d="M210.939,59.074c0-0.207-0.011-0.373,0.006-0.535c0.006-0.062,0.074-0.117,0.115-0.176c0.04,0.057,0.116,0.113,0.115,0.169
		c-0.006,0.711-0.02,1.421-0.043,2.131c-0.002,0.054-0.084,0.103-0.129,0.154c-0.02-0.013-0.04-0.026-0.06-0.039
		c-0.01-0.224-0.02-0.446-0.032-0.704c-3.376-0.033-6.734-0.066-10.127-0.1c0,0.195,0.012,0.359-0.006,0.52
		c-0.008,0.067-0.082,0.127-0.126,0.19c-0.036-0.062-0.104-0.121-0.104-0.183c-0.008-0.732-0.005-1.466-0.005-2.199
		c0.031-0.02,0.062-0.039,0.093-0.059c0.054,0.053,0.108,0.105,0.161,0.158c0.005,0.005,0,0.018,0.001,0.027
		c0.04,0.541,0.04,0.543,0.578,0.549c3.081,0.031,6.163,0.064,9.245,0.096C210.71,59.075,210.8,59.074,210.939,59.074"/>
	<path d="M140.967,20.392c0.047-0.086,0.076-0.194,0.146-0.252c0.125-0.103,0.275-0.175,0.431-0.269
		c-1.725-2.915-3.438-5.809-5.151-8.704c-0.189,0.092-0.351,0.175-0.517,0.248c-0.04,0.017-0.096-0.001-0.144-0.003
		c0.017-0.053,0.025-0.11,0.052-0.156c0.022-0.037,0.063-0.068,0.102-0.09c0.609-0.348,1.22-0.693,1.866-1.06
		c0.005,0.079,0.02,0.135,0.008,0.184c-0.005,0.025-0.058,0.039-0.088,0.06c-0.447,0.307-0.452,0.31-0.171,0.78
		c0.724,1.209,1.455,2.413,2.176,3.623c0.87,1.461,1.732,2.926,2.598,4.389c0.041,0.069,0.09,0.133,0.134,0.196
		c0.638-0.286,0.638-0.286,0.707-0.123c-0.65,0.387-1.301,0.778-1.957,1.16c-0.051,0.03-0.133,0.007-0.201,0.008L140.967,20.392"/>
	<path d="M184.81,12.127c-0.215-0.15-0.402-0.28-0.589-0.41c0.025-0.038,0.05-0.076,0.076-0.114c0.69,0.389,1.381,0.779,2.078,1.172
		c-0.09,0.246-0.221,0.093-0.335,0.036c-0.121-0.062-0.237-0.132-0.369-0.207c-1.695,2.939-3.379,5.86-5.075,8.799
		c0.177,0.103,0.332,0.181,0.473,0.28c0.048,0.034,0.058,0.122,0.086,0.185c-0.069,0.003-0.154,0.034-0.206,0.005
		c-0.607-0.342-1.207-0.696-1.813-1.039c-0.152-0.085-0.145-0.161-0.016-0.273c0.189,0.104,0.38,0.209,0.604,0.333
		C181.418,17.976,183.108,15.061,184.81,12.127"/>
	<path d="M200.794,57.427c0,0.203,0.01,0.366-0.005,0.528c-0.006,0.064-0.066,0.123-0.101,0.184
		c-0.04-0.056-0.114-0.111-0.114-0.168c-0.003-0.695,0.002-1.393,0.015-2.089c0.001-0.057,0.076-0.112,0.117-0.169
		c0.035,0.061,0.097,0.12,0.102,0.184c0.038,0.535,0.035,0.535,0.566,0.539c1.888,0.018,3.776,0.037,5.664,0.054
		c1.044,0.009,2.088,0.01,3.132,0.021c0.182,0.002,0.364,0.027,0.545,0.047c0.204,0.021,0.285-0.07,0.273-0.271
		c-0.009-0.146-0.002-0.291-0.002-0.45c0.166-0.077,0.218-0.005,0.21,0.166c-0.021,0.503-0.042,1.006-0.054,1.51
		c-0.005,0.19,0.025,0.383,0.017,0.572c-0.002,0.055-0.081,0.107-0.126,0.161c-0.033-0.062-0.102-0.129-0.094-0.185
		c0.086-0.59,0.109-0.571-0.566-0.568c-0.869,0.003-1.737-0.016-2.606-0.02c-1.273-0.007-2.547-0.008-3.821-0.017
		c-0.935-0.006-1.87-0.019-2.805-0.029C201.042,57.426,200.942,57.427,200.794,57.427"/>
	<path d="M162.84,11.334l-5.005,0.006l0.004,3.603c0,0.34,0.016,0.556,0.048,0.649c0.03,0.093,0.088,0.171,0.173,0.235
		c0.085,0.063,0.232,0.095,0.442,0.094v0.096l-2.357,0.002v-0.095c0.429,0.029,0.644-0.185,0.643-0.643l-0.009-7.537
		c0-0.428-0.034-0.7-0.103-0.814c-0.068-0.114-0.248-0.178-0.541-0.19V6.644l2.357-0.002v0.095c-0.26,0.017-0.435,0.069-0.526,0.154
		c-0.09,0.085-0.135,0.259-0.135,0.522l0.004,3.666l5.005-0.006l-0.004-3.354c0-0.382-0.033-0.642-0.097-0.78
		c-0.064-0.137-0.242-0.206-0.535-0.206V6.638l2.326-0.003V6.73c-0.184,0.001-0.321,0.023-0.41,0.068
		c-0.09,0.044-0.151,0.113-0.184,0.207c-0.033,0.093-0.049,0.33-0.048,0.712l0.008,7.193c0,0.369,0.017,0.599,0.05,0.69
		c0.033,0.092,0.09,0.167,0.172,0.226c0.081,0.059,0.222,0.089,0.422,0.089l0.001,0.095l-2.327,0.003v-0.096
		c0.252,0,0.42-0.053,0.504-0.159c0.085-0.106,0.127-0.392,0.126-0.858L162.84,11.334z"/>
	<path d="M203.037,31.188c0.647,1.103,0.831,2.207,0.552,3.312c-0.279,1.106-0.934,1.961-1.967,2.567
		c-1.328,0.779-2.684,1.029-4.067,0.75c-1.384-0.279-2.469-1.089-3.255-2.43c-0.639-1.089-0.796-2.195-0.47-3.318
		c0.325-1.123,1-1.985,2.025-2.586c0.692-0.406,1.5-0.655,2.424-0.747c0.925-0.093,1.814,0.062,2.667,0.465
		C201.8,29.604,202.497,30.266,203.037,31.188 M195.113,35.792c0.317,0.541,0.779,0.987,1.386,1.339
		c0.607,0.351,1.261,0.525,1.962,0.52c0.7-0.004,1.327-0.169,1.88-0.493c0.783-0.459,1.376-1.08,1.777-1.863
		c0.402-0.783,0.593-1.606,0.575-2.467c-0.018-0.862-0.189-1.569-0.512-2.12c-0.458-0.779-1.174-1.309-2.15-1.59
		c-0.977-0.281-1.913-0.159-2.81,0.367c-1.146,0.672-1.925,1.65-2.337,2.934C194.471,33.704,194.547,34.828,195.113,35.792"/>
	<path d="M193.625,79.199l0.793-1.533l1.283,0.664c-0.489-1.242-0.455-2.402,0.104-3.481c0.415-0.802,0.976-1.318,1.683-1.548
		c0.706-0.23,1.469-0.133,2.286,0.289l4.985,2.58c0.302,0.156,0.512,0.221,0.628,0.193c0.117-0.027,0.242-0.17,0.375-0.426
		l0.085,0.044l-1.112,2.147l-0.085-0.043c0.118-0.228,0.164-0.406,0.138-0.539c-0.024-0.131-0.174-0.268-0.45-0.41l-4.572-2.366
		c-0.958-0.496-1.753-0.632-2.387-0.408c-0.635,0.224-1.095,0.613-1.383,1.169c-0.453,0.875-0.449,1.86,0.011,2.956l5.635,2.917
		c0.493,0.256,0.808,0.365,0.944,0.329c0.136-0.036,0.251-0.146,0.343-0.323l0.04-0.078l0.085,0.045l-1.103,2.132l-0.085-0.044
		c0.121-0.272,0.162-0.461,0.121-0.568c-0.04-0.105-0.165-0.214-0.376-0.324l-6.778-3.508c-0.268-0.138-0.449-0.216-0.545-0.232
		c-0.096-0.019-0.192-0.002-0.288,0.049c-0.095,0.051-0.192,0.171-0.29,0.361L193.625,79.199z"/>
	<path d="M163.449,106.904L163.448,107l-2.585-0.029c-0.656-0.008-1.13-0.027-1.423-0.061c-0.292-0.033-0.591-0.136-0.896-0.307
		c-0.306-0.171-0.535-0.4-0.689-0.689c-0.153-0.287-0.227-0.641-0.223-1.057c0.006-0.475,0.15-0.927,0.433-1.355
		c0.284-0.428,0.681-0.787,1.191-1.078l-0.632-1.024c-0.137-0.257-0.503-0.817-1.097-1.687c-0.595-0.866-1.056-1.396-1.384-1.588
		c-0.328-0.193-0.646-0.291-0.956-0.295c-0.305-0.004-0.657,0.113-1.055,0.351l-0.036-0.128c0.5-0.41,1.145-0.61,1.935-0.602
		c0.528,0.006,0.979,0.172,1.355,0.497c0.375,0.325,1.025,1.214,1.949,2.667c0.008,0.008,0.012,0.018,0.013,0.025l0.899,1.46
		l0.812-0.017l0.738,0.01l0.04-3.586c0.003-0.287-0.031-0.494-0.103-0.62c-0.072-0.125-0.249-0.19-0.531-0.193l0.001-0.095
		l2.351,0.025l-0.001,0.096c-0.293,0.01-0.477,0.07-0.55,0.185c-0.073,0.114-0.112,0.347-0.116,0.699l-0.085,7.446
		c-0.002,0.242,0.026,0.443,0.087,0.603C162.95,106.813,163.136,106.896,163.449,106.904 M161.744,106.732l0.05-4.396l-0.955-0.012
		c-0.751-0.009-1.312,0.167-1.679,0.528c-0.368,0.36-0.555,0.838-0.562,1.432c-0.007,0.577,0.166,1.126,0.518,1.646
		c0.351,0.519,0.977,0.783,1.878,0.795L161.744,106.732z"/>
	<path d="M124.573,77.012l-0.087,0.039c-0.117-0.259-0.243-0.404-0.378-0.437c-0.135-0.032-0.325,0.007-0.568,0.116l-6.996,3.145
		c-0.248,0.112-0.413,0.223-0.496,0.332c-0.083,0.11-0.061,0.316,0.066,0.621l-0.087,0.039l-1.002-2.229l0.087-0.039
		c0.093,0.207,0.185,0.34,0.277,0.397c0.091,0.06,0.18,0.085,0.265,0.078s0.258-0.069,0.517-0.185l6.003-2.698
		c0.514-0.232,0.823-0.515,0.926-0.851c0.102-0.336,0.023-0.795-0.238-1.377l-0.457-1.014c-0.219-0.488-0.504-0.791-0.854-0.906
		c-0.349-0.115-0.873-0.033-1.57,0.248l-0.038-0.084l2.055-0.924L124.573,77.012z"/>
	<path d="M118.054,30.122l0.678-1.188l0.082,0.048c-0.074,0.156-0.108,0.301-0.101,0.433c0.008,0.133,0.074,0.318,0.197,0.555
		l1.916,3.656l3.727,2.126c0.302,0.172,0.521,0.247,0.658,0.225c0.137-0.023,0.278-0.16,0.422-0.413l0.083,0.047l-1.208,2.117
		l-0.083-0.047c0.257-0.39,0.209-0.686-0.145-0.888l-0.238-0.121l-3.442-1.964l-4.41,0.056c-0.466,0.004-0.766,0.135-0.898,0.392
		l-0.083-0.047l1.067-1.87l0.083,0.047c-0.099,0.174-0.081,0.3,0.055,0.378c0.07,0.04,0.204,0.057,0.402,0.051l3.621-0.051
		l-1.736-3.301c-0.012-0.049-0.045-0.116-0.102-0.201c-0.057-0.084-0.1-0.135-0.129-0.152c-0.122-0.069-0.227-0.027-0.314,0.127
		l-0.019,0.032L118.054,30.122z"/>
	<path d="M78.37,55.676H29.602v34.133c0,3.211,0.151,5.258,0.453,6.141c0.301,0.882,0.864,1.626,1.687,2.227
		c0.823,0.604,2.261,0.903,4.311,0.903v0.903H13.084v-0.903c4.18,0.28,6.27-1.747,6.27-6.086V21.61c0-4.055-0.332-6.626-0.995-7.711
		c-0.663-1.083-2.421-1.686-5.275-1.806v-0.905h22.968v0.905c-2.532,0.16-4.241,0.643-5.124,1.446
		c-0.885,0.804-1.327,2.452-1.327,4.943v34.722H78.37V21.436c0-3.617-0.311-6.078-0.934-7.384c-0.624-1.306-2.361-1.959-5.215-1.959
		v-0.905h22.666v0.905c-1.792,0-3.125,0.211-4.001,0.633s-1.472,1.073-1.791,1.957c-0.318,0.882-0.477,3.133-0.477,6.747v68.13
		c0,3.494,0.159,5.674,0.477,6.535c0.319,0.864,0.876,1.578,1.672,2.141c0.796,0.561,2.169,0.843,4.12,0.843v0.903H72.221v-0.903
		c2.451,0,4.089-0.501,4.913-1.506c0.823-1.003,1.236-3.712,1.236-8.126V55.676z"/>
	<path d="M304.141,99.982h-16.818V86.299c-8.552,9.525-18.749,14.287-30.592,14.287c-8.793,0-15.769-2.473-20.927-7.415
		c-5.159-4.942-7.738-11.774-7.738-20.495V19.507c0-3.215-0.383-5.254-1.145-6.118c-0.764-0.864-2.553-1.296-5.365-1.296v-0.904
		h23.57v0.904c-2.493,0-4.25,0.392-5.275,1.175c-1.025,0.784-1.537,2.643-1.537,5.576v48.768c0,10.209,2.388,17.492,7.165,21.853
		s10.214,6.54,16.315,6.54c9.593,0,18.103-4.32,25.529-12.96v-60.1c0-5.265-0.463-8.39-1.387-9.374
		c-0.926-0.985-2.372-1.477-4.341-1.477h-0.844v-0.904h23.39v0.904c-2.895,0.161-4.713,0.643-5.455,1.445
		c-0.745,0.804-1.116,2.329-1.116,4.58v72.285c0,2.854,0.141,4.722,0.422,5.604c0.281,0.884,0.853,1.618,1.718,2.2
		c0.864,0.581,2.341,0.872,4.432,0.872V99.982z"/>
	<path d="M312.144,12.333V11.43h25.198c6.39,0,11.011,0.141,13.864,0.424c2.854,0.281,5.777,1.215,8.771,2.804
		c2.993,1.59,5.253,3.74,6.781,6.454c1.526,2.716,2.291,6.045,2.291,9.985c0,4.504-1.357,8.798-4.07,12.88
		s-6.541,7.532-11.484,10.348l6.27,9.635c1.365,2.41,4.992,7.689,10.882,15.842c5.887,8.15,10.438,13.119,13.654,14.908
		c3.215,1.787,6.329,2.682,9.344,2.682c2.974,0,6.39-1.145,10.248-3.436l0.36,1.205c-4.818,3.938-11.082,5.907-18.79,5.907
		c-5.139,0-9.555-1.521-13.249-4.563c-3.693-3.041-10.123-11.391-19.288-25.045c-0.08-0.078-0.12-0.158-0.12-0.24l-8.924-13.734
		l-7.912,0.241h-7.188v33.95c0,2.728,0.358,4.685,1.075,5.869c0.716,1.184,2.448,1.774,5.194,1.774v0.904h-22.907v-0.904
		c2.854-0.12,4.632-0.722,5.335-1.807c0.703-1.083,1.055-3.292,1.055-6.627V20.347c0-2.289-0.301-4.187-0.904-5.694
		C317.027,13.147,315.198,12.374,312.144,12.333 M328.782,13.78v41.654h9.301c7.328,0,12.765-1.728,16.31-5.185
		c3.543-3.456,5.313-7.997,5.313-13.623c0-5.466-1.741-10.64-5.224-15.523c-3.484-4.883-9.614-7.324-18.393-7.324H328.782z"/>
	<path d="M406.492,100.404v-0.903c2.773,0,4.572-0.523,5.396-1.566c0.822-1.045,1.236-2.831,1.236-5.362V19.924
		c0-2.57-0.323-4.427-0.965-5.572c-0.644-1.144-2.572-1.757-5.788-1.837v-0.904h23.812v0.904c-2.211,0-3.76,0.281-4.642,0.844
		c-0.884,0.562-1.469,1.226-1.748,1.989c-0.282,0.764-0.422,2.492-0.422,5.184v62.332c0,5.344,1.282,9.112,3.851,11.303
		c2.569,2.189,6.963,3.285,13.186,3.285h10.834c5.217,0,9.039-1.287,11.468-3.858c2.428-2.572,3.783-7.414,4.064-14.528h0.903v21.34
		H406.492z"/>
	<path d="M519.678,11.852H533v0.904c-1.688,0.121-3.074,0.523-4.159,1.206s-2.331,2.09-3.738,4.22L503.402,51.1v40.645
		c0,3.289,0.426,5.442,1.278,6.463c0.851,1.023,2.696,1.535,5.534,1.535v0.903h-23.751v-0.903c4.541,0.28,6.812-1.506,6.812-5.363
		l-0.121-2.529V54.317l-21.761-36.016c-2.291-3.818-4.845-5.666-7.655-5.546v-0.904h20.978v0.904c-1.956,0-2.932,0.742-2.932,2.226
		c0,0.761,0.502,1.945,1.507,3.548l17.912,29.551l19.559-29.781c0.362-0.319,0.764-0.912,1.206-1.776
		c0.442-0.864,0.663-1.457,0.663-1.779c0-1.326-0.864-1.989-2.59-1.989h-0.362V11.852z"/>
</g>
</svg>
